<svg xmlns="http://www.w3.org/2000/svg" viewBox="0 0 371.69 277.96"><defs><style>.cls-1{fill:#93c5fd;}.cls-2{fill:#2563eb;}.cls-3{fill:none;stroke:#2563eb;stroke-miterlimit:10;}</style></defs><g id="Layer_2" data-name="Layer 2"><g id="Layer_1-2" data-name="Layer 1"><path class="cls-1" d="M122,92.11l63.82,63.82L68.21,273.56a15,15,0,0,1-21.21,0L4.39,231a15,15,0,0,1,0-21.22l94.14-94.13Z"/><path class="cls-2" d="M367.3,231l-42.61,42.6a15,15,0,0,1-21.21,0L122,92.11l53.21-53.22a15,15,0,0,1,21.21,0l53.22,53.22L367.3,209.74A15,15,0,0,1,367.3,231Z"/><path class="cls-2" d="M282.22,33c-.33,0-.65,0-1,0A32.07,32.07,0,0,1,249.16,1c0-.33,0-.66,0-1Z"/><line class="cls-3" x1="282.24" y1="33.06" x2="282.22" y2="33.04"/><path class="cls-1" d="M282,64.47c-1.59.13-3.19.2-4.81.2A56.24,56.24,0,0,1,221,8.42c0-1.62.07-3.23.2-4.81Z"/><line class="cls-3" x1="282.08" y1="64.51" x2="282.04" y2="64.47"/></g></g></svg>